<svg xmlns="http://www.w3.org/2000/svg" viewBox="0 0 1440 820" aria-hidden="true">
  <defs>
    <linearGradient id="zigBlue" x1="0%" y1="0%" x2="100%" y2="100%">
      <stop offset="0%" stop-color="#def4ff" />
      <stop offset="42%" stop-color="#9ed9ff" />
      <stop offset="100%" stop-color="#68b5ff" />
    </linearGradient>
    <linearGradient id="waveBlue" x1="0%" y1="0%" x2="100%" y2="100%">
      <stop offset="0%" stop-color="#dff6ff" />
      <stop offset="100%" stop-color="#96d7ff" />
    </linearGradient>
    <filter id="softBlur" x="-20%" y="-20%" width="140%" height="140%">
      <feGaussianBlur stdDeviation="9" />
    </filter>
  </defs>

  <g transform="translate(328 248)" filter="url(#softBlur)">
    <rect x="0" y="0" width="86" height="48" rx="24" fill="url(#zigBlue)" transform="rotate(44 43 24)" />
    <rect x="68" y="0" width="86" height="48" rx="24" fill="url(#zigBlue)" transform="rotate(-44 111 24)" />
  </g>

  <g transform="translate(372 412) scale(0.72)" filter="url(#softBlur)">
    <rect x="0" y="0" width="86" height="48" rx="24" fill="url(#zigBlue)" transform="rotate(44 43 24)" />
    <rect x="68" y="0" width="86" height="48" rx="24" fill="url(#zigBlue)" transform="rotate(-44 111 24)" />
  </g>

  <path d="M1044 210c121 71 137 209 64 310" fill="none" stroke="#08356f" stroke-opacity="0.4" stroke-width="34" stroke-linecap="round" filter="url(#softBlur)" />
  <path d="M1124 264c91 53 102 162 52 241" fill="none" stroke="#0e4f97" stroke-opacity="0.28" stroke-width="24" stroke-linecap="round" filter="url(#softBlur)" />

  <path d="M378 642c15 55 48 99 101 133 32 21 69 34 112 39" fill="none" stroke="#8fd3ff" stroke-opacity="0.48" stroke-width="34" stroke-linecap="round" filter="url(#softBlur)" />
  <path d="M432 648c17 45 52 84 100 113" fill="none" stroke="#5baeff" stroke-opacity="0.24" stroke-width="24" stroke-linecap="round" filter="url(#softBlur)" />

  <path d="M1122 620c28 9 55 15 82 21" fill="none" stroke="url(#waveBlue)" stroke-width="18" stroke-linecap="round" />
  <path d="M1152 674c27 8 54 14 81 19" fill="none" stroke="url(#waveBlue)" stroke-width="18" stroke-linecap="round" />

  <path d="M620 70c26-3 50 2 69 16" fill="none" stroke="#0691ff" stroke-opacity="0.28" stroke-width="20" stroke-linecap="round" filter="url(#softBlur)" />

  <path d="M28 640c92 38 149 109 168 199" fill="#7abcf7" fill-opacity="0.16" />
  <path d="M1246 706c58 9 110 40 150 88 24 29 42 58 54 86" fill="#8bc9fb" fill-opacity="0.16" />
</svg>
