<svg xmlns="http://www.w3.org/2000/svg" viewBox="0 0 320 240" role="img" aria-label="Delulu logo">
  <defs>
    <linearGradient id="logoGradient" x1="0%" y1="0%" x2="100%" y2="100%">
      <stop offset="0%" stop-color="#f03a2d" />
      <stop offset="48%" stop-color="#ff5832" />
      <stop offset="100%" stop-color="#ff6c3d" />
    </linearGradient>
    <mask id="logoCutouts">
      <rect width="320" height="240" fill="#fff" />
      <path fill="#000" d="M122 96h36c36 0 63 7 83 22 16 12 24 30 24 54 0 24-8 42-24 54-20 15-47 22-83 22h-36l12-29h19c27 0 48-4 61-12 12-8 18-19 18-35 0-16-6-27-18-35-13-8-34-12-61-12h-19l-12-29z" />
      <path fill="#000" d="M81 90h61l-17 95c-8 42-32 76-70 95l-12 6 23-92c9-36 14-70 15-104z" />
    </mask>
  </defs>
  <path
    fill="url(#logoGradient)"
    mask="url(#logoCutouts)"
    d="M36 45c62 0 120 7 166 28 50 24 77 60 77 102s-27 78-77 102c-46 22-104 29-166 29l28-42c39 0 77-5 108-15 31-11 56-29 72-53 9-12 13-25 13-39 0-14-4-27-13-39-16-24-41-42-72-53-31-10-69-15-108-15L36 45z"
  />
</svg>
